<svg width="12" height="13" viewBox="0 0 12 13" fill="none" xmlns="http://www.w3.org/2000/svg">
<path d="M6 1.1582C8.7615 1.1582 11 3.3967 11 6.1582C11 8.9197 8.7615 11.1582 6 11.1582C3.2385 11.1582 1 8.9197 1 6.1582C1 3.3967 3.2385 1.1582 6 1.1582ZM6 2.1582C4.93913 2.1582 3.92172 2.57963 3.17157 3.32978C2.42143 4.07992 2 5.09734 2 6.1582C2 7.21907 2.42143 8.23649 3.17157 8.98663C3.92172 9.73678 4.93913 10.1582 6 10.1582C7.06087 10.1582 8.07828 9.73678 8.82843 8.98663C9.57857 8.23649 10 7.21907 10 6.1582C10 5.09734 9.57857 4.07992 8.82843 3.32978C8.07828 2.57963 7.06087 2.1582 6 2.1582ZM6 3.1582C6.12247 3.15822 6.24067 3.20318 6.33219 3.28456C6.4237 3.36594 6.48217 3.47808 6.4965 3.5997L6.5 3.6582V5.9512L7.8535 7.3047C7.94317 7.39468 7.99524 7.51542 7.99911 7.6424C8.00299 7.76937 7.95839 7.89306 7.87438 7.98834C7.79036 8.08362 7.67322 8.14336 7.54676 8.1554C7.4203 8.16745 7.294 8.13091 7.1935 8.0532L7.1465 8.0117L5.6465 6.5117C5.56879 6.43393 5.51888 6.3327 5.5045 6.2237L5.5 6.1582V3.6582C5.5 3.52559 5.55268 3.39842 5.64645 3.30465C5.74021 3.21088 5.86739 3.1582 6 3.1582Z" fill="black"/>
</svg>
