<svg width="17" height="20" viewBox="0 0 17 20" fill="none" xmlns="http://www.w3.org/2000/svg">
<path d="M9.9998 6.18945C10.1246 6.18948 10.2466 6.22688 10.3499 6.29684C10.4533 6.36679 10.5334 6.46609 10.5798 6.58195C10.8748 7.32029 11.2406 7.78612 11.6131 8.08029C11.9831 8.37445 12.3898 8.52195 12.8048 8.57529C13.6606 8.68612 14.539 8.39862 15.0815 8.15945L15.0956 8.15362C15.1731 8.11945 15.2598 8.08112 15.334 8.05362H15.3381C15.4842 7.99782 15.643 7.98425 15.7965 8.01445C15.9066 8.0389 16.0102 8.08686 16.1001 8.15503C16.1899 8.2232 16.264 8.30999 16.3173 8.40945C16.4206 8.60112 16.409 8.79445 16.4048 8.85779V8.85945C16.399 8.93779 16.3856 9.02945 16.3748 9.10862C16.1565 10.6361 15.9348 12.1628 15.7206 13.6903C15.6123 14.457 15.2048 14.9345 14.4423 15.1553C11.5378 15.9785 8.46176 15.9785 5.5573 15.1553C4.7948 14.9345 4.38646 14.457 4.27896 13.6903C4.0648 12.1628 3.84313 10.6361 3.6248 9.10862C3.61167 9.02597 3.60167 8.94286 3.5948 8.85945V8.85779C3.58164 8.70311 3.61194 8.54783 3.6823 8.40945C3.73555 8.30999 3.80965 8.2232 3.89954 8.15503C3.98943 8.08686 4.09299 8.0389 4.20313 8.01445C4.35648 7.98398 4.51531 7.99727 4.66146 8.05279L4.6648 8.05445C4.7398 8.08112 4.82646 8.11945 4.90396 8.15362L4.91813 8.15945C5.4598 8.39862 6.33813 8.68612 7.19313 8.57612C7.62938 8.52446 8.04276 8.35282 8.3873 8.08029C8.75813 7.78612 9.12396 7.32029 9.4198 6.58195C9.46623 6.46609 9.54629 6.36679 9.64966 6.29684C9.75303 6.22688 9.87498 6.18948 9.9998 6.18945Z" fill="#F4D570"/>
</svg>
