<svg width="20" height="20" viewBox="0 0 20 20" fill="none" xmlns="http://www.w3.org/2000/svg">
<path d="M10 13.3321C11.8403 13.3321 13.3321 11.8403 13.3321 10C13.3321 8.15979 11.8403 6.66797 10 6.66797C8.15979 6.66797 6.66797 8.15979 6.66797 10C6.66797 11.8403 8.15979 13.3321 10 13.3321Z" fill="#AFAFAF"/>
<path d="M19.389 7.84943C18.097 5.74521 15.1581 2.21484 9.99998 2.21484C4.8419 2.21484 1.90299 5.74521 0.610965 7.84943C-0.203655 9.16703 -0.203655 10.8319 0.610965 12.1495C1.90299 14.2537 4.8419 17.7841 9.99998 17.7841C15.1581 17.7841 18.097 14.2537 19.389 12.1495C20.2036 10.8319 20.2036 9.16703 19.389 7.84943ZM9.99998 14.9976C7.2396 14.9976 5.00183 12.7598 5.00183 9.99945C5.00183 7.23907 7.2396 5.00131 9.99998 5.00131C12.7604 5.00131 14.9981 7.23907 14.9981 9.99945C14.9954 12.7587 12.7592 14.9948 9.99998 14.9976Z" fill="#AFAFAF"/>
</svg>
