<svg width="20" height="20" viewBox="0 0 20 20" fill="none" xmlns="http://www.w3.org/2000/svg">
<path d="M6.75 10C7.61195 10 8.4386 9.65759 9.0481 9.0481C9.65759 8.4386 10 7.61195 10 6.75C10 5.88805 9.65759 5.0614 9.0481 4.4519C8.4386 3.84241 7.61195 3.5 6.75 3.5C5.88805 3.5 5.0614 3.84241 4.4519 4.4519C3.84241 5.0614 3.5 5.88805 3.5 6.75C3.5 7.61195 3.84241 8.4386 4.4519 9.0481C5.0614 9.65759 5.88805 10 6.75 10ZM12.437 15.145C12.967 15.362 13.641 15.5 14.499 15.5C18.499 15.5 18.499 12.5 18.499 12.5C18.499 12.1023 18.3411 11.721 18.06 11.4397C17.7789 11.1584 17.3977 11.0003 17 11H12.372C12.765 11.476 13.001 12.085 13.001 12.75V13.106C12.9989 13.1902 12.9932 13.2743 12.984 13.358C12.9159 13.9827 12.7297 14.5889 12.437 15.145ZM17 7.5C17 8.16304 16.7366 8.79893 16.2678 9.26777C15.7989 9.73661 15.163 10 14.5 10C13.837 10 13.2011 9.73661 12.7322 9.26777C12.2634 8.79893 12 8.16304 12 7.5C12 6.83696 12.2634 6.20107 12.7322 5.73223C13.2011 5.26339 13.837 5 14.5 5C15.163 5 15.7989 5.26339 16.2678 5.73223C16.7366 6.20107 17 6.83696 17 7.5ZM1.5 13C1.5 12.4696 1.71071 11.9609 2.08579 11.5858C2.46086 11.2107 2.96957 11 3.5 11H10C10.5304 11 11.0391 11.2107 11.4142 11.5858C11.7893 11.9609 12 12.4696 12 13C12 13 12 17 6.75 17C1.5 17 1.5 13 1.5 13Z" fill="#A34EFF"/>
</svg>
