<svg width="20" height="20" viewBox="0 0 20 20" fill="none" xmlns="http://www.w3.org/2000/svg">
<g clip-path="url(#clip0_91_308)">
<path d="M19.389 7.84032C18.637 6.60886 17.6884 5.50888 16.5809 4.58403L18.9134 2.25158C19.233 1.92064 19.2238 1.3933 18.8929 1.07369C18.57 0.761894 18.0582 0.761894 17.7354 1.07369L15.1989 3.61357C13.6264 2.67962 11.8288 2.19281 9.99998 2.20577C4.84271 2.20577 1.90381 5.73614 0.610965 7.84036C-0.203655 9.15796 -0.203655 10.8228 0.610965 12.1404C1.36299 13.3719 2.31158 14.4719 3.4191 15.3967L1.08665 17.7292C0.755716 18.0488 0.746539 18.5762 1.06615 18.9071C1.38576 19.238 1.91314 19.2472 2.24403 18.9276C2.25098 18.9209 2.25781 18.914 2.26453 18.9071L4.80691 16.3647C6.37738 17.2985 8.17288 17.7861 9.99998 17.775C15.1572 17.775 18.0962 14.2446 19.389 12.1404C20.2037 10.8228 20.2037 9.15796 19.389 7.84032ZM5.00187 9.99038C4.99715 7.23457 7.2273 4.99673 9.98311 4.992C11.0258 4.99021 12.0429 5.31513 12.8914 5.92107L11.6819 7.13062C11.1741 6.82441 10.593 6.66119 10 6.6583C8.15977 6.6583 6.66794 8.15013 6.66794 9.99038C6.67083 10.5833 6.83405 11.1645 7.14026 11.6723L5.93071 12.8818C5.32672 12.0386 5.00191 11.0275 5.00187 9.99038ZM10 14.9885C8.96287 14.9885 7.95176 14.6637 7.10859 14.0597L8.31814 12.8501C8.82592 13.1564 9.40708 13.3196 10 13.3225C11.8403 13.3225 13.3321 11.8306 13.3321 9.99038C13.3292 9.39744 13.166 8.81629 12.8598 8.30851L14.0693 7.09896C15.6708 9.34164 15.151 12.458 12.9084 14.0595C12.0598 14.6654 11.0427 14.9903 10 14.9885Z" fill="#AFAFAF"/>
</g>
<defs>
<clipPath id="clip0_91_308">
<rect width="20" height="20" fill="white"/>
</clipPath>
</defs>
</svg>
