<svg width="33" height="32" viewBox="0 0 33 32" fill="currentColor" xmlns="http://www.w3.org/2000/svg">
<path d="M17.8358 21.5576C18.0389 21.0046 18.8499 21.0046 19.0531 21.5576L19.6088 23.0697C19.6738 23.2467 19.8182 23.386 20.0018 23.4487L21.5699 23.9845C22.1434 24.1804 22.1434 24.9624 21.5699 25.1584L20.0018 25.6942C19.8182 25.7569 19.6738 25.8961 19.6088 26.0732L19.0531 27.5853C18.8499 28.1382 18.0389 28.1382 17.8358 27.5853L17.2801 26.0732C17.2151 25.8961 17.0707 25.7569 16.8871 25.6942L15.319 25.1584C14.7455 24.9624 14.7455 24.1804 15.319 23.9845L16.8871 23.4487C17.0707 23.386 17.2151 23.2467 17.2801 23.0697L17.8358 21.5576Z" fill="currentColor"/>
<path d="M20.1859 4.63038C20.4948 3.78987 21.7274 3.78988 22.0363 4.63038L23.0948 7.5111C23.1937 7.78014 23.4132 7.99179 23.6922 8.08712L26.6796 9.10786C27.5512 9.40568 27.5512 10.5943 26.6796 10.8921L23.6922 11.9129C23.4132 12.0082 23.1937 12.2199 23.0948 12.4889L22.0363 15.3696C21.7274 16.2101 20.4948 16.2101 20.1859 15.3696L19.1274 12.4889C19.0285 12.2199 18.809 12.0082 18.53 11.9129L15.5426 10.8921C14.671 10.5943 14.671 9.40568 15.5426 9.10786L18.53 8.08712C18.809 7.99179 19.0285 7.78014 19.1274 7.5111L20.1859 4.63038Z" fill="currentColor"/>
<path d="M9.31522 12.4839C9.54381 11.8387 10.4562 11.8387 10.6848 12.4839L11.3099 14.248C11.383 14.4545 11.5455 14.617 11.752 14.6901L13.5161 15.3152C14.1613 15.5438 14.1613 16.4562 13.5161 16.6848L11.752 17.3099C11.5455 17.383 11.383 17.5455 11.3099 17.752L10.6848 19.5161C10.4562 20.1613 9.54381 20.1613 9.31522 19.5161L8.69013 17.752C8.61696 17.5455 8.4545 17.383 8.24799 17.3099L6.48386 16.6848C5.83871 16.4562 5.83871 15.5438 6.48386 15.3152L8.24799 14.6901C8.4545 14.617 8.61696 14.4545 8.69013 14.248L9.31522 12.4839Z" fill="currentColor"/>
<path d="M17.8358 21.5576C18.0389 21.0046 18.8499 21.0046 19.0531 21.5576L19.6088 23.0697C19.6738 23.2467 19.8182 23.386 20.0018 23.4487L21.5699 23.9845C22.1434 24.1804 22.1434 24.9624 21.5699 25.1584L20.0018 25.6942C19.8182 25.7569 19.6738 25.8961 19.6088 26.0732L19.0531 27.5853C18.8499 28.1382 18.0389 28.1382 17.8358 27.5853L17.2801 26.0732C17.2151 25.8961 17.0707 25.7569 16.8871 25.6942L15.319 25.1584C14.7455 24.9624 14.7455 24.1804 15.319 23.9845L16.8871 23.4487C17.0707 23.386 17.2151 23.2467 17.2801 23.0697L17.8358 21.5576Z" stroke="currentColor" stroke-width="2" stroke-linejoin="round"/>
<path d="M20.1859 4.63038C20.4948 3.78987 21.7274 3.78988 22.0363 4.63038L23.0948 7.5111C23.1937 7.78014 23.4132 7.99179 23.6922 8.08712L26.6796 9.10786C27.5512 9.40568 27.5512 10.5943 26.6796 10.8921L23.6922 11.9129C23.4132 12.0082 23.1937 12.2199 23.0948 12.4889L22.0363 15.3696C21.7274 16.2101 20.4948 16.2101 20.1859 15.3696L19.1274 12.4889C19.0285 12.2199 18.809 12.0082 18.53 11.9129L15.5426 10.8921C14.671 10.5943 14.671 9.40568 15.5426 9.10786L18.53 8.08712C18.809 7.99179 19.0285 7.78014 19.1274 7.5111L20.1859 4.63038Z" stroke="currentColor" stroke-width="2" stroke-linejoin="round"/>
<path d="M9.31522 12.4839C9.54381 11.8387 10.4562 11.8387 10.6848 12.4839L11.3099 14.248C11.383 14.4545 11.5455 14.617 11.752 14.6901L13.5161 15.3152C14.1613 15.5438 14.1613 16.4562 13.5161 16.6848L11.752 17.3099C11.5455 17.383 11.383 17.5455 11.3099 17.752L10.6848 19.5161C10.4562 20.1613 9.54381 20.1613 9.31522 19.5161L8.69013 17.752C8.61696 17.5455 8.4545 17.383 8.24799 17.3099L6.48386 16.6848C5.83871 16.4562 5.83871 15.5438 6.48386 15.3152L8.24799 14.6901C8.4545 14.617 8.61696 14.4545 8.69013 14.248L9.31522 12.4839Z" stroke="currentColor" stroke-width="2" stroke-linejoin="round"/>
</svg>
